<svg width="44" height="44" viewBox="0 0 44 44" fill="none" xmlns="http://www.w3.org/2000/svg">
	<path d="M22 14.7188C17.9688 14.7188 14.7188 18 14.7188 22C14.7188 26 18 29.2812 22 29.2812C26 29.2812 29.2812 26 29.2812 22C29.2812 18 26 14.7188 22 14.7188ZM43.875 22C43.875 18.9688 43.875 16 43.7188 12.9688C43.5625 9.46875 42.75 6.34375 40.1875 3.8125C37.625 1.25 34.5312 0.4375 31.0313 0.28125C28 0.125 25.0312 0.125 22 0.125C18.9688 0.125 16 0.125 12.9688 0.28125C9.46875 0.4375 6.34375 1.25 3.8125 3.8125C1.25 6.375 0.4375 9.46875 0.28125 12.9688C0.125 16 0.125 18.9688 0.125 22C0.125 25.0312 0.125 28 0.28125 31.0313C0.4375 34.5312 1.25 37.6562 3.8125 40.1875C6.375 42.75 9.46875 43.5625 12.9688 43.7188C16 43.875 18.9688 43.875 22 43.875C25.0312 43.875 28 43.875 31.0313 43.7188C34.5312 43.5625 37.6562 42.75 40.1875 40.1875C42.75 37.625 43.5625 34.5312 43.7188 31.0313C43.9062 28.0313 43.875 25.0312 43.875 22ZM22 33.2188C15.7812 33.2188 10.7812 28.2188 10.7812 22C10.7812 15.7812 15.7812 10.7812 22 10.7812C28.2188 10.7812 33.2188 15.7812 33.2188 22C33.2188 28.2188 28.2188 33.2188 22 33.2188ZM33.6875 12.9375C32.25 12.9375 31.0625 11.7813 31.0625 10.3125C31.0625 8.84375 32.2188 7.6875 33.6875 7.6875C35.1562 7.6875 36.3125 8.84375 36.3125 10.3125C36.3204 10.6548 36.2579 10.9951 36.1289 11.3122C35.9999 11.6294 35.8071 11.9167 35.5625 12.1562C35.3229 12.4009 35.0356 12.5936 34.7185 12.7227C34.4013 12.8517 34.0611 12.9142 33.7188 12.9062L33.6875 12.9375Z" fill="white" />
</svg>
